<?xml version="1.0" encoding="utf-8"?>
<!-- Generator: Adobe Illustrator 25.3.0, SVG Export Plug-In . SVG Version: 6.00 Build 0)  -->
<svg version="1.1" id="Layer_1" xmlns="http://www.w3.org/2000/svg" xmlns:xlink="http://www.w3.org/1999/xlink" x="0px" y="0px"
	 viewBox="0 0 318.9 83" style="enable-background:new 0 0 318.9 83;" xml:space="preserve">
<style type="text/css">
	.st0{fill:#FFFFFF;}
</style>
<g>
	<path class="st0" d="M100.1,25.7h10.6l3.8,20.2l5.6-20.2h10.5l5.6,20.1l3.8-20.1h10.5l-7.9,36h-10.9L125.3,39L119,61.7h-10.9
		L100.1,25.7z"/>
	<path class="st0" d="M154.6,25.7h11.2v36h-11.2V25.7z"/>
	<path class="st0" d="M171.8,49.8l10.6-0.7c0.2,1.7,0.7,3,1.4,3.9c1.1,1.5,2.8,2.2,4.9,2.2c1.6,0,2.8-0.4,3.7-1.1
		c0.9-0.7,1.3-1.6,1.3-2.6c0-0.9-0.4-1.8-1.2-2.5s-2.7-1.4-5.7-2.1c-4.9-1.1-8.4-2.6-10.4-4.4c-2.1-1.8-3.1-4.1-3.1-7
		c0-1.9,0.5-3.6,1.6-5.2s2.7-2.9,4.8-3.9c2.2-0.9,5.1-1.4,8.9-1.4c4.6,0,8.1,0.9,10.5,2.6c2.4,1.7,3.9,4.4,4.3,8.2l-10.5,0.6
		c-0.3-1.6-0.9-2.8-1.8-3.5s-2.1-1.1-3.7-1.1c-1.3,0-2.3,0.3-2.9,0.8c-0.7,0.5-1,1.2-1,2c0,0.6,0.3,1.1,0.8,1.5
		c0.5,0.5,1.8,0.9,3.7,1.3c4.9,1,8.4,2.1,10.5,3.2c2.1,1.1,3.6,2.4,4.6,4c1,1.6,1.4,3.4,1.4,5.3c0,2.3-0.6,4.4-1.9,6.4
		s-3.1,3.4-5.4,4.4c-2.3,1-5.2,1.5-8.7,1.5c-6.1,0-10.4-1.2-12.7-3.5C173.4,56.4,172.1,53.4,171.8,49.8z"/>
	<path class="st0" d="M232.2,55.8h-12.6l-1.8,5.9h-11.4l13.5-36h12.1l13.5,36H234L232.2,55.8z M229.9,48l-4-13L222,48H229.9z"/>
	<path class="st0" d="M243.2,25.7h33.8v8.9h-11.4v27.1h-11.1V34.6h-11.4V25.7z"/>
	<path class="st0" d="M300.9,55.8h-12.6l-1.8,5.9h-11.4l13.5-36h12.1l13.5,36h-11.7L300.9,55.8z M298.6,48l-4-13l-3.9,13H298.6z"/>
</g>
<path class="st0" d="M69.1,15.8L44.6,1.7c-1.8-1-4.1-1.6-6.7-1.6s-4.8,0.5-6.7,1.6L6.7,15.8C3,18.1,0,23.1,0,27.3v28.3
	c0,4.3,2.9,9.3,6.7,11.5l24.5,14.2c1.8,1,4.1,1.6,6.7,1.6s4.8-0.5,6.7-1.6l24.5-14.2c3.7-2.2,6.7-7.2,6.7-11.5V27.2
	C75.8,23.1,72.9,18,69.1,15.8z M8.2,64.7C5.4,63.1,3,59,3,55.6V43.5c8.8-0.6,14,1.6,20.4,4.6c5.8,2.6,12.8,5.7,24.3,7.5
	c-2.1,0.5-4.3,0.8-6.5,1.2c-11.7,2-22.7,4-28.7,10.5L8.2,64.7z M45.1,40.1c-5.3,2.1-12.1,4-22.3,4.7c-4.5-2-8.8-3.7-14.4-4.1
	L27.1,22l13.8,13.8l0,0l0,0L45.1,40.1z M43.8,34.8l13.4-13.4l10.1,10.1c-5.8,0.5-9.9,2.6-14.4,4.8c-1.6,0.8-3.2,1.6-5.1,2.5
	L43.8,34.8z M73.1,55.6c0,3.3-2.4,7.5-5.3,9.1L43.3,78.9c-1.4,0.7-3.3,1.3-5.3,1.3s-3.9-0.5-5.3-1.3l-18-10.3
	c5.6-5.5,15.9-7.3,26.8-9.2c12.3-2.2,25-4.4,31.5-12.3L73.1,55.6L73.1,55.6z M73.1,42c-2.9,6.3-9.5,9.6-17.2,11.7
	c-13.5-1-21.4-3.7-27.9-6.6c13.3-1.6,20.4-5.2,26.3-8.2c5.7-2.9,10.4-5.3,18.9-4.6L73.1,42L73.1,42z M73.1,31.6
	c-0.7-0.1-1.4-0.1-2-0.1L58.2,18.6c-0.5-0.5-1.4-0.5-1.9,0L41.9,33L28.1,19.2c-0.5-0.5-1.4-0.5-1.9,0L4.7,40.7
	c-0.5,0-1.1,0.1-1.6,0.1V27.3c0-3.3,2.4-7.5,5.2-9.1L32.8,4c1.4-0.7,3.3-1.3,5.3-1.3S42,3.2,43.4,4l24.5,14.2
	c2.8,1.6,5.3,5.8,5.3,9.1L73.1,31.6L73.1,31.6z"/>
</svg>
