<?xml version="1.0" encoding="utf-8"?>
<!-- Generator: Adobe Illustrator 25.3.0, SVG Export Plug-In . SVG Version: 6.00 Build 0)  -->
<svg version="1.1" id="Layer_1" xmlns="http://www.w3.org/2000/svg" xmlns:xlink="http://www.w3.org/1999/xlink" x="0px" y="0px"
	 viewBox="0 0 305.5 82.9" style="enable-background:new 0 0 305.5 82.9;" xml:space="preserve">
<style type="text/css">
	.st0{fill:none;stroke:#000000;stroke-width:3;stroke-miterlimit:10;}
</style>
<g>
	<path class="st0" d="M100.4,25.8h10L114,45l5.3-19.2h10l5.3,19.1l3.6-19.1h10L140.8,60h-10.4l-6-21.6l-6,21.6H108L100.4,25.8z"/>
	<path class="st0" d="M152.2,25.8h10.6V60h-10.6V25.8z"/>
	<path class="st0" d="M168.6,48.7l10.1-0.6c0.2,1.6,0.7,2.9,1.3,3.7c1.1,1.4,2.6,2.1,4.7,2.1c1.5,0,2.7-0.4,3.5-1.1
		c0.8-0.7,1.2-1.5,1.2-2.5c0-0.9-0.4-1.7-1.2-2.4s-2.6-1.4-5.4-2c-4.6-1-7.9-2.4-9.9-4.2c-2-1.7-3-3.9-3-6.6c0-1.8,0.5-3.4,1.5-5
		s2.6-2.8,4.6-3.7c2-0.9,4.9-1.3,8.4-1.3c4.4,0,7.7,0.8,10,2.4s3.7,4.2,4.1,7.8l-10,0.6c-0.3-1.5-0.8-2.7-1.7-3.4
		c-0.8-0.7-2-1.1-3.5-1.1c-1.2,0-2.2,0.3-2.8,0.8c-0.6,0.5-0.9,1.2-0.9,1.9c0,0.5,0.3,1,0.8,1.5s1.7,0.9,3.5,1.3c4.6,1,7.9,2,9.9,3
		s3.5,2.3,4.4,3.8s1.4,3.2,1.4,5.1c0,2.2-0.6,4.2-1.8,6.1c-1.2,1.9-2.9,3.3-5.1,4.2c-2.2,1-4.9,1.4-8.2,1.4c-5.8,0-9.9-1.1-12.1-3.4
		C170.1,55,168.8,52.2,168.6,48.7z"/>
	<path class="st0" d="M226,54.4h-12l-1.7,5.7h-10.8l12.9-34.2h11.5L238.8,60h-11.1L226,54.4z M223.8,47L220,34.7L216.3,47H223.8z"/>
	<path class="st0" d="M236.4,25.8h32.2v8.5h-10.8V60h-10.6V34.3h-10.8L236.4,25.8L236.4,25.8z"/>
	<path class="st0" d="M291.2,54.4h-12l-1.7,5.7h-10.8l12.9-34.2h11.5L304,60h-11.1L291.2,54.4z M289,47l-3.8-12.3L281.5,47H289z"/>
</g>
<path d="M69.1,15.8L44.6,1.6c-1.8-1-4.1-1.6-6.7-1.6s-4.8,0.5-6.7,1.6L6.7,15.8C3,18,0,23,0,27.3v28.3c0,4.3,2.9,9.3,6.7,11.5
	l24.5,14.2c1.8,1,4.1,1.6,6.7,1.6s4.8-0.5,6.7-1.6l24.5-14.2c3.7-2.2,6.7-7.2,6.7-11.5V27.2C75.8,23,72.9,17.9,69.1,15.8z M8.2,64.7
	C5.4,63.1,3,58.9,3,55.6V43.5c8.8-0.6,14,1.6,20.4,4.6c5.8,2.6,12.8,5.7,24.3,7.5c-2.1,0.5-4.3,0.8-6.5,1.2
	c-11.7,2-22.7,4-28.7,10.5L8.2,64.7z M45.1,40c-5.3,2.1-12.1,4-22.3,4.7c-4.5-2-8.8-3.7-14.4-4.1l18.7-18.7l13.8,13.8l0,0l0,0
	L45.1,40z M43.8,34.8l13.4-13.4l10.1,10.1c-5.8,0.5-9.9,2.6-14.4,4.8c-1.6,0.8-3.2,1.6-5.1,2.5L43.8,34.8z M73.1,55.5
	c0,3.3-2.4,7.5-5.3,9.1L43.3,78.8c-1.4,0.7-3.3,1.3-5.3,1.3s-3.9-0.5-5.3-1.3l-18-10.3c5.6-5.5,15.9-7.3,26.8-9.2
	c12.3-2.2,25-4.4,31.5-12.3L73.1,55.5L73.1,55.5z M73.1,41.9c-2.9,6.3-9.5,9.6-17.2,11.7c-13.5-1-21.4-3.7-27.9-6.6
	c13.3-1.6,20.4-5.2,26.3-8.2c5.7-2.9,10.4-5.3,18.9-4.6L73.1,41.9L73.1,41.9z M73.1,31.5c-0.7-0.1-1.4-0.1-2-0.1L58.2,18.5
	c-0.5-0.5-1.4-0.5-1.9,0L41.9,32.9L28.1,19.1c-0.5-0.5-1.4-0.5-1.9,0L4.7,40.6c-0.5,0-1.1,0.1-1.6,0.1V27.2c0-3.3,2.4-7.5,5.2-9.1
	L32.8,3.9c1.4-0.7,3.3-1.3,5.3-1.3s3.9,0.5,5.3,1.3l24.5,14.2c2.8,1.6,5.3,5.8,5.3,9.1L73.1,31.5L73.1,31.5z"/>
</svg>
